<?xml version="1.0" standalone="no"?>
<svg xmlns:xlink="http://www.w3.org/1999/xlink" id="wave" style="transform:rotate(180deg); transition: 0.3s" viewBox="0 0 1440 100" version="1.1" xmlns="http://www.w3.org/2000/svg"><defs><linearGradient id="sw-gradient-0" x1="0" x2="0" y1="1" y2="0"><stop stop-color="rgba(255, 249, 234, 1)" offset="0%"/><stop stop-color="rgba(255, 249, 234, 1)" offset="100%"/></linearGradient></defs><path style="transform:translate(0, 0px); opacity:1" fill="url(#sw-gradient-0)" d="M0,10L34.3,18.3C68.6,27,137,43,206,41.7C274.3,40,343,20,411,16.7C480,13,549,27,617,35C685.7,43,754,47,823,51.7C891.4,57,960,63,1029,68.3C1097.1,73,1166,77,1234,76.7C1302.9,77,1371,73,1440,66.7C1508.6,60,1577,50,1646,53.3C1714.3,57,1783,73,1851,68.3C1920,63,1989,37,2057,28.3C2125.7,20,2194,30,2263,41.7C2331.4,53,2400,67,2469,75C2537.1,83,2606,87,2674,81.7C2742.9,77,2811,63,2880,56.7C2948.6,50,3017,50,3086,55C3154.3,60,3223,70,3291,68.3C3360,67,3429,53,3497,55C3565.7,57,3634,73,3703,71.7C3771.4,70,3840,50,3909,43.3C3977.1,37,4046,43,4114,38.3C4182.9,33,4251,17,4320,23.3C4388.6,30,4457,60,4526,71.7C4594.3,83,4663,77,4731,76.7C4800,77,4869,83,4903,86.7L4937.1,90L4937.1,100L4902.9,100C4868.6,100,4800,100,4731,100C4662.9,100,4594,100,4526,100C4457.1,100,4389,100,4320,100C4251.4,100,4183,100,4114,100C4045.7,100,3977,100,3909,100C3840,100,3771,100,3703,100C3634.3,100,3566,100,3497,100C3428.6,100,3360,100,3291,100C3222.9,100,3154,100,3086,100C3017.1,100,2949,100,2880,100C2811.4,100,2743,100,2674,100C2605.7,100,2537,100,2469,100C2400,100,2331,100,2263,100C2194.3,100,2126,100,2057,100C1988.6,100,1920,100,1851,100C1782.9,100,1714,100,1646,100C1577.1,100,1509,100,1440,100C1371.4,100,1303,100,1234,100C1165.7,100,1097,100,1029,100C960,100,891,100,823,100C754.3,100,686,100,617,100C548.6,100,480,100,411,100C342.9,100,274,100,206,100C137.1,100,69,100,34,100L0,100Z"/></svg>